<?xml version="1.0" encoding="UTF-8"?>
<svg width="218px" height="60px" viewBox="0 0 218 60" version="1.1" xmlns="http://www.w3.org/2000/svg" xmlns:xlink="http://www.w3.org/1999/xlink">
    <!-- Generator: sketchtool 50 (54983) - http://www.bohemiancoding.com/sketch -->
    <title>D973A4BF-5834-49D9-8E67-323E5BA64B14@2</title>
    <desc>Created with sketchtool.</desc>
    <defs>
        <polygon id="path-1" points="0.0004 0.3931 19.0694 0.3931 19.0694 17 0.0004 17"></polygon>
        <polygon id="path-3" points="0.6863 0.3935 17.3713 0.3935 17.3713 17 0.6863 17"></polygon>
    </defs>
    <g id="Iphone-X" stroke="none" stroke-width="1" fill="none" fill-rule="evenodd">
        <g id="Splash" transform="translate(-491.000000, -127.000000)">
            <g id="Logo-/-On-Dark" transform="translate(491.000000, 127.000000)">
                <rect id="Background" x="0" y="0" width="218" height="60"></rect>
                <g id="logo">
                    <path d="M0.719867306,52.64 C0.239953369,51.8933296 0,51.1733368 0,50.48 C0,49.413328 0.559891194,48.5066704 1.67969038,47.76 C2.21292809,47.3866648 2.82614225,47.2 3.51935127,47.2 C4.47917914,47.2 5.35900816,47.599996 6.15886473,48.4 C7.75857785,50.2133424 9.47824366,51.5733288 11.3179137,52.48 C13.1575838,53.3866712 15.3571564,53.84 17.9166974,53.84 C19.9430007,53.7866664 21.7293202,53.3200044 23.2757095,52.44 C24.8220989,51.5599956 25.595282,50.1333432 25.595282,48.16 C25.595282,46.3466576 24.8087682,44.9600048 23.2357169,44 C21.6626657,43.0399952 19.3564472,42.160004 16.3169923,41.36 C13.3308611,40.559996 10.851343,39.7200044 8.87836344,38.84 C6.90538392,37.9599956 5.23904108,36.6800084 3.87928492,35 C2.51952877,33.3199916 1.83966089,31.1200136 1.83966089,28.4 C1.83966089,25.999988 2.51952877,23.8933424 3.87928492,22.08 C5.23904108,20.2666576 7.05202209,18.8533384 9.31828234,17.84 C11.5845426,16.8266616 14.05073,16.32 16.7169185,16.32 C19.2764595,16.32 21.8226314,16.7999952 24.3555105,17.76 C26.8883896,18.7200048 28.9546547,20.1866568 30.5543679,22.16 C31.1942531,22.9066704 31.5141909,23.679996 31.5141909,24.48 C31.5141909,25.3333376 31.0876072,26.159996 30.2344268,26.96 C29.7011891,27.4400024 29.034652,27.68 28.2347954,27.68 C27.2749676,27.68 26.5017845,27.3600032 25.915223,26.72 C24.7954238,25.4399936 23.4223573,24.4533368 21.7959823,23.76 C20.1696073,23.0666632 18.369957,22.72 16.3969775,22.72 C14.3706742,22.72 12.6510084,23.1333292 11.2379285,23.96 C9.82484857,24.7866708 9.1183192,26.1866568 9.1183192,28.16 C9.17164297,30.026676 9.98481828,31.4133288 11.5578695,32.32 C13.1309208,33.2266712 15.5437852,34.1066624 18.7965352,34.96 C21.622695,35.7066704 23.9689058,36.5066624 25.8352377,37.36 C27.7015697,38.2133376 29.2745974,39.4799916 30.5543679,41.16 C31.8341384,42.8400084 32.474014,45.0399864 32.474014,47.76 C32.474014,50.2666792 31.7541539,52.4399908 30.3144121,54.28 C28.8746703,56.1200092 26.9950356,57.5333284 24.6754515,58.52 C22.3558675,59.5066716 19.8896801,60 17.2768153,60 C13.9174178,60 10.8113547,59.4133392 7.95853299,58.24 C5.10571126,57.0666608 2.69284682,55.2000128 0.719867306,52.64 Z M110.979727,16.32 C115.192305,16.32 118.69829,16.98666 121.497788,18.32 C124.297286,19.65334 125.697014,21.3599896 125.697014,23.44 C125.697014,24.3466712 125.403738,25.1599964 124.817177,25.88 C124.230615,26.6000036 123.484093,26.96 122.577589,26.96 C121.88438,26.96 121.33782,26.8533344 120.937892,26.64 C120.537963,26.4266656 119.991403,26.0800024 119.298194,25.6 C118.978251,25.2799984 118.471683,24.9066688 117.778474,24.48 C117.138589,24.1599984 116.232098,23.8933344 115.058975,23.68 C113.885852,23.4666656 112.819393,23.36 111.859565,23.36 C109.086729,23.36 106.633872,23.9999936 104.500921,25.28 C102.367971,26.5600064 100.714959,28.333322 99.5418356,30.6 C98.3687127,32.866678 97.78216,35.3866528 97.78216,38.16 C97.78216,40.9866808 98.3553819,43.5199888 99.501843,45.76 C100.648304,48.0000112 102.261324,49.7599936 104.340951,51.04 C106.420578,52.3200064 108.79345,52.96 111.459639,52.96 C114.232475,52.96 116.47204,52.5333376 118.1784,51.68 C118.551667,51.4666656 119.058235,51.1200024 119.69812,50.64 C120.231358,50.2133312 120.697934,49.8933344 121.097862,49.68 C121.49779,49.4666656 121.991028,49.36 122.577589,49.36 C123.644065,49.36 124.483902,49.69333 125.097125,50.36 C125.710348,51.02667 126.016955,51.893328 126.016955,52.96 C126.016955,54.0800056 125.310426,55.1866612 123.897346,56.28 C122.484266,57.3733388 120.591301,58.2666632 118.218393,58.96 C115.845485,59.6533368 113.299313,60 110.579801,60 C106.527194,60 102.954555,59.0533428 99.8617766,57.16 C96.7689979,55.2666572 94.382795,52.65335 92.7030962,49.32 C91.0233974,45.98665 90.1835606,42.2666872 90.1835606,38.16 C90.1835606,34.0533128 91.0633897,30.33335 92.8230741,27 C94.5827585,23.66665 97.0356152,21.0533428 100.181718,19.16 C103.32782,17.2666572 106.927121,16.32 110.979727,16.32 Z M154.731662,16.56 C164.116646,16.56 168.809067,22.3732752 168.809067,34 L168.809067,55.36 C168.809067,56.426672 168.449137,57.3333296 167.729266,58.08 C167.009396,58.8266704 166.089574,59.2 164.969775,59.2 C163.9033,59.2 163.01014,58.8266704 162.290269,58.08 C161.570398,57.3333296 161.210468,56.426672 161.210468,55.36 L161.210468,34 C161.210468,27.066632 158.277705,23.6 152.41209,23.6 C149.265987,23.6 146.653162,24.59999 144.573535,26.6 C142.493908,28.60001 141.45411,31.066652 141.45411,34 L141.45411,55.36 C141.45411,56.426672 141.09418,57.3333296 140.374309,58.08 C139.654438,58.8266704 138.734617,59.2 137.614818,59.2 C136.495018,59.2 135.588528,58.8400036 134.895319,58.12 C134.20211,57.3999964 133.855511,56.4800056 133.855511,55.36 L133.855511,3.84 C133.855511,2.773328 134.215441,1.8666704 134.935311,1.12 C135.655182,0.3733296 136.548342,0 137.614818,0 C138.734617,0 139.654438,0.3733296 140.374309,1.12 C141.09418,1.8666704 141.45411,2.773328 141.45411,3.84 L141.45411,24.08 C142.787204,21.9999896 144.653508,20.226674 147.053078,18.76 C149.452647,17.293326 152.01215,16.56 154.731662,16.56 Z M214.160708,16.72 C215.280507,16.72 216.200328,17.0799964 216.920199,17.8 C217.64007,18.5200036 218,19.4666608 218,20.64 L218,55.36 C218,56.426672 217.64007,57.3333296 216.920199,58.08 C216.200328,58.8266704 215.280507,59.2 214.160708,59.2 C213.040909,59.2 212.134418,58.8400036 211.441209,58.12 C210.748,57.3999964 210.401401,56.4800056 210.401401,55.36 L210.401401,53.28 C209.014983,55.146676 207.122017,56.7333268 204.722447,58.04 C202.322878,59.3466732 199.736714,60 196.963878,60 C193.337861,60 190.045168,59.066676 187.085698,57.2 C184.126229,55.333324 181.80668,52.73335 180.126981,49.4 C178.447282,46.06665 177.607446,42.3200208 177.607446,38.16 C177.607446,33.9999792 178.447282,30.25335 180.126981,26.92 C181.80668,23.58665 184.112898,20.986676 187.045706,19.12 C189.978513,17.253324 193.204553,16.32 196.723922,16.32 C199.550082,16.32 202.176238,16.9066608 204.60247,18.08 C207.028701,19.2533392 208.961659,20.7466576 210.401401,22.56 L210.401401,20.64 C210.401401,19.5199944 210.748,18.5866704 211.441209,17.84 C212.134418,17.0933296 213.040909,16.72 214.160708,16.72 Z M197.843715,52.96 C200.349933,52.96 202.576167,52.3200064 204.522484,51.04 C206.468802,49.7599936 207.988507,48.0000112 209.081644,45.76 C210.174781,43.5199888 210.721342,40.9866808 210.721342,38.16 C210.721342,35.3866528 210.174781,32.8800112 209.081644,30.64 C207.988507,28.3999888 206.468802,26.6266732 204.522484,25.32 C202.576167,24.0133268 200.349933,23.36 197.843715,23.36 C195.337498,23.36 193.111264,23.9999936 191.164947,25.28 C189.218629,26.5600064 187.698924,28.3199888 186.605787,30.56 C185.51265,32.8000112 184.966089,35.3333192 184.966089,38.16 C184.966089,40.9866808 185.51265,43.5199888 186.605787,45.76 C187.698924,48.0000112 189.218629,49.7599936 191.164947,51.04 C193.111264,52.3200064 195.337498,52.96 197.843715,52.96 Z" id="socha" fill="#FFFFFF"></path>
                    <circle id="Oval" fill="#FFFFFF" cx="60.8400002" cy="37.8400002" r="21.8400002"></circle>
                    <g id="hearts" transform="translate(44.000000, 29.000000)">
                        <g id="Group-3" transform="translate(0.000000, 0.607100)">
                            <mask id="mask-2" fill="white">
                                <use xlink:href="#path-1"></use>
                            </mask>
                            <g id="Clip-2"></g>
                            <path d="M13.9194,0.3931 C15.4234,0.3931 16.6574,0.8801 17.6224,1.8551 C18.5874,2.8311 19.0694,4.1671 19.0694,5.8661 C19.0694,7.5961 18.4874,9.2471 17.3244,10.8191 C16.1894,12.3611 14.7704,13.7451 13.0674,14.9711 C12.3874,15.4751 11.7484,15.8911 11.1524,16.2221 C10.5564,16.5521 10.1304,16.7641 9.8754,16.8581 L9.5344,17.0001 C8.7404,16.7801 7.5634,16.1031 6.0014,14.9711 C4.2994,13.7451 2.8804,12.3611 1.7454,10.8191 C0.5814,9.2471 0.0004,7.5961 0.0004,5.8661 C0.0004,4.1671 0.4824,2.8311 1.4474,1.8551 C2.4124,0.8801 3.6474,0.3931 5.1504,0.3931 C6.0294,0.3931 6.8744,0.6131 7.6834,1.0531 C8.4914,1.4941 9.1084,2.1071 9.5344,2.8931 C9.9604,2.1071 10.5774,1.4941 11.3864,1.0531 C12.1944,0.6131 13.0394,0.3931 13.9194,0.3931" id="Fill-1" fill="#EB4D4B" mask="url(#mask-2)"></path>
                        </g>
                        <path d="M19.0698,6.4729 C19.0698,4.7739 18.5878,3.4379 17.6228,2.4629 C17.3358,2.1719 17.0208,1.9309 16.6858,1.7269 C16.3508,1.9309 16.0368,2.1719 15.7498,2.4629 C14.7848,3.4379 14.3018,4.7739 14.3018,6.4729 C14.3018,8.2029 14.8838,9.8539 16.0478,11.4269 C16.2478,11.6989 16.4678,11.9599 16.6858,12.2219 C16.9038,11.9599 17.1248,11.6989 17.3248,11.4269 C18.4878,9.8539 19.0698,8.2029 19.0698,6.4729" id="Fill-4" fill="#686DE0"></path>
                        <g id="Group-8" transform="translate(16.000000, 0.607100)">
                            <mask id="mask-4" fill="white">
                                <use xlink:href="#path-3"></use>
                            </mask>
                            <g id="Clip-7"></g>
                            <path d="M15.9243,1.8555 C14.9593,0.8805 13.7253,0.3935 12.2213,0.3935 C11.3413,0.3935 10.4973,0.6125 9.6893,1.0535 C8.8793,1.4935 8.2623,2.1065 7.8373,2.8935 C7.4113,2.1065 6.7943,1.4935 5.9863,1.0535 C5.1763,0.6125 4.3323,0.3935 3.4523,0.3935 C2.3973,0.3935 1.4763,0.6385 0.6863,1.1195 C1.0213,1.3235 1.3353,1.5645 1.6223,1.8555 C2.5873,2.8305 3.0703,4.1675 3.0703,5.8655 C3.0703,7.5955 2.4873,9.2465 1.3243,10.8195 C1.1243,11.0915 0.9033,11.3525 0.6863,11.6145 C1.7033,12.8375 2.9023,13.9605 4.3043,14.9715 C5.8643,16.1035 7.0423,16.7795 7.8373,17.0005 L8.1773,16.8585 C8.4333,16.7645 8.8593,16.5515 9.4543,16.2215 C10.0503,15.8915 10.6893,15.4745 11.3693,14.9715 C13.0723,13.7445 14.4913,12.3605 15.6263,10.8195 C16.7893,9.2465 17.3713,7.5955 17.3713,5.8655 C17.3713,4.1675 16.8893,2.8305 15.9243,1.8555" id="Fill-6" fill="#7ED6DF" mask="url(#mask-4)"></path>
                        </g>
                    </g>
                </g>
            </g>
        </g>
    </g>
</svg>